<svg xmlns="http://www.w3.org/2000/svg" width="24" height="24" viewBox="0 0 24 24">
    <path fill="#C6CBD4" fill-rule="nonzero" d="M20.002 5.59h-7.168a.607.607 0 0 1-.391-.143l-1.315-1.114A1.415 1.415 0 0 0 10.215 4H5.504a.99.99 0 0 0-.998.98v1.31H2.998A.99.99 0 0 0 2 7.272V19.02c0 .54.448.98.998.98h14.498a.99.99 0 0 0 .998-.98v-1.31h1.508a.99.99 0 0 0 .998-.98V6.57a.99.99 0 0 0-.998-.98zm-2.306 13.43c0 .108-.09.196-.2.196H2.998c-.11 0-.2-.088-.2-.196v-8.061h14.898v8.06zm0-8.846H2.799V7.271c0-.108.09-.196.2-.196h4.71c.144 0 .283.05.391.143l1.315 1.114c.254.214.578.333.913.333h7.168c.11 0 .2.088.2.196v1.313zM20.2 16.73c0 .108-.09.196-.2.196h-1.507V8.861a.99.99 0 0 0-.998-.98h-7.168a.605.605 0 0 1-.391-.143L8.622 6.624a1.413 1.413 0 0 0-.913-.333H5.304V4.98c0-.109.09-.197.2-.197h4.711c.143 0 .282.051.391.143l1.315 1.114c.254.215.578.333.913.333h7.168c.11 0 .2.088.2.196v10.16z"/>
</svg>
