<svg xmlns="http://www.w3.org/2000/svg" xmlns:xlink="http://www.w3.org/1999/xlink" width="145" height="210" viewBox="0 0 145 210">
    <defs>
        <rect id="a" width="120" height="120" rx="30"/>
        <linearGradient id="c" x1="50%" x2="50%" y1="0%" y2="100%">
            <stop offset="0%" stop-color="#30B9D3"/>
            <stop offset="100%" stop-color="#B0E0E6"/>
        </linearGradient>
        <radialGradient id="d" cy="0%" r="100%" fx="50%" fy="0%" gradientTransform="matrix(0 1 -.54546 0 .5 -.5)">
            <stop offset="0%" stop-color="#30B9D3"/>
            <stop offset="100%" stop-color="#6DDFF6"/>
        </radialGradient>
    </defs>
    <g fill="none" fill-rule="evenodd">
        <path fill="#17365B" d="M4.669 167.133c.846.846 1.875 1.27 3.086 1.27 1.198 0 2.22-.424 3.066-1.27.846-.847 1.27-1.869 1.27-3.067 0-1.198-.424-2.226-1.27-3.086-.846-.846-1.868-1.27-3.066-1.27-1.211 0-2.24.424-3.086 1.27-.847.86-1.27 1.888-1.27 3.086s.423 2.22 1.27 3.067zm-1.27-8.418c1.29-1.055 2.741-1.582 4.356-1.582 1.9 0 3.528.677 4.882 2.031 1.355 1.354 2.032 2.988 2.032 4.902 0 1.901-.677 3.529-2.032 4.883-1.354 1.354-2.981 2.031-4.882 2.031-1.914 0-3.548-.677-4.903-2.03-1.354-1.355-2.03-2.983-2.03-4.884V151.04h2.577v7.676zm18.76 9.707V171h-.117c-1.133 0-2.096-.397-2.89-1.191-.808-.808-1.211-1.778-1.211-2.91v-15.84h2.578v15.84c0 .416.15.774.449 1.074.3.3.658.449 1.074.449h.117zM29.201 161c-.847.86-1.27 1.888-1.27 3.086s.423 2.22 1.27 3.066c.846.847 1.868 1.27 3.066 1.27 1.198 0 2.22-.423 3.067-1.27.859-.846 1.289-1.868 1.289-3.066 0-1.198-.43-2.227-1.29-3.086-.846-.846-1.868-1.27-3.066-1.27-1.198 0-2.22.424-3.066 1.27zm-1.817 7.969c-1.354-1.354-2.03-2.982-2.03-4.883 0-1.914.676-3.548 2.03-4.902 1.355-1.355 2.982-2.032 4.883-2.032 1.914 0 3.548.677 4.903 2.032 1.354 1.354 2.03 2.988 2.03 4.902 0 1.901-.676 3.529-2.03 4.883-1.355 1.354-2.989 2.031-4.903 2.031-1.9 0-3.528-.677-4.883-2.031zm18.995-1.817c.846.847 1.875 1.27 3.086 1.27.768 0 1.536-.176 2.305-.527.794-.365 1.386-.827 1.777-1.387l2.129 1.445c-.612.912-1.504 1.647-2.676 2.207-1.159.56-2.337.84-3.535.84-1.914 0-3.548-.677-4.903-2.031-1.354-1.354-2.03-2.982-2.03-4.883 0-1.914.676-3.548 2.03-4.902 1.355-1.355 2.989-2.032 4.903-2.032 1.21 0 2.344.306 3.398.918a6.956 6.956 0 0 1 2.461 2.383l-2.129 1.426c-.86-1.432-2.103-2.149-3.73-2.149-1.211 0-2.24.424-3.086 1.27-.846.86-1.27 1.888-1.27 3.086s.424 2.22 1.27 3.066zm21.885-8.164l-5.098 4.317 6.875 5.86L68.225 171l-6.992-5.977V171h-2.578v-20.39h2.578v10.995l5.215-4.453 1.816 1.836zm9.014 8.164c.846.847 1.875 1.27 3.086 1.27.768 0 1.537-.176 2.305-.527.794-.365 1.386-.827 1.777-1.387l2.129 1.445c-.612.912-1.504 1.647-2.676 2.207-1.159.56-2.337.84-3.535.84-1.914 0-3.548-.677-4.902-2.031s-2.032-2.982-2.032-4.883c0-1.914.678-3.548 2.032-4.902 1.354-1.355 2.988-2.032 4.902-2.032 1.211 0 2.344.306 3.398.918a6.956 6.956 0 0 1 2.461 2.383l-2.128 1.426c-.86-1.432-2.103-2.149-3.73-2.149-1.212 0-2.24.424-3.087 1.27-.846.86-1.27 1.888-1.27 3.086s.424 2.22 1.27 3.066zM92.132 171h-2.578v-19.941h2.578v7.636c1.276-1.028 2.67-1.543 4.18-1.543 1.9 0 3.509.677 4.824 2.032 1.289 1.34 1.934 2.975 1.934 4.902V171h-2.579v-6.914c0-1.211-.397-2.24-1.191-3.086-.807-.846-1.803-1.27-2.988-1.27s-2.181.424-2.989 1.27c-.794.846-1.191 1.875-1.191 3.086V171zm18.448-3.848c.846.847 1.868 1.27 3.066 1.27 1.198 0 2.227-.423 3.086-1.27.846-.846 1.27-1.868 1.27-3.066 0-1.198-.424-2.227-1.27-3.086-.86-.846-1.888-1.27-3.086-1.27s-2.22.424-3.066 1.27c-.847.86-1.27 1.888-1.27 3.086s.423 2.22 1.27 3.066zm10-3.066v6.894h-2.578v-1.562c-1.29 1.055-2.741 1.582-4.356 1.582-1.901 0-3.529-.677-4.883-2.031s-2.031-2.982-2.031-4.883c0-1.914.677-3.548 2.031-4.902 1.354-1.355 2.982-2.032 4.883-2.032 1.914 0 3.548.677 4.902 2.032 1.355 1.354 2.032 2.988 2.032 4.902zm3.33 6.914v-13.848h2.578V171h-2.578zm0-16.074v-2.5h2.578v2.5h-2.578zM132.846 171h-2.578v-6.914c0-1.914.677-3.548 2.031-4.902 1.354-1.355 2.982-2.032 4.883-2.032 1.914 0 3.548.677 4.902 2.032 1.355 1.354 2.032 2.988 2.032 4.902V171h-2.579v-6.914c0-1.198-.43-2.227-1.289-3.086-.846-.846-1.868-1.27-3.066-1.27-1.198 0-2.22.424-3.066 1.27-.847.86-1.27 1.888-1.27 3.086V171zM24.162 199.152c.846.847 1.875 1.27 3.086 1.27.768 0 1.537-.176 2.305-.527.794-.365 1.386-.827 1.777-1.387l2.129 1.445c-.612.912-1.504 1.647-2.676 2.207-1.159.56-2.337.84-3.535.84-1.914 0-3.548-.677-4.902-2.031s-2.032-2.982-2.032-4.883c0-1.914.678-3.548 2.032-4.902 1.354-1.355 2.988-2.032 4.902-2.032 1.211 0 2.344.306 3.398.918a6.956 6.956 0 0 1 2.461 2.383l-2.128 1.426c-.86-1.432-2.103-2.149-3.731-2.149-1.21 0-2.24.424-3.086 1.27-.846.86-1.27 1.888-1.27 3.086s.424 2.22 1.27 3.066zm16.124 0c.846.847 1.868 1.27 3.066 1.27 1.198 0 2.227-.423 3.086-1.27.846-.846 1.27-1.868 1.27-3.066 0-1.198-.424-2.227-1.27-3.086-.86-.846-1.888-1.27-3.086-1.27s-2.22.424-3.066 1.27c-.847.86-1.27 1.888-1.27 3.086s.423 2.22 1.27 3.066zm10-3.066v6.894h-2.579v-1.562c-1.289 1.055-2.74 1.582-4.355 1.582-1.901 0-3.529-.677-4.883-2.031s-2.031-2.982-2.031-4.883c0-1.914.677-3.548 2.031-4.902 1.354-1.355 2.982-2.032 4.883-2.032 1.914 0 3.548.677 4.902 2.032 1.354 1.354 2.032 2.988 2.032 4.902zM56.253 203h-2.578v-8.34c0-1.51.533-2.806 1.601-3.887 1.08-1.08 2.383-1.62 3.906-1.62 1.72 0 3.125.657 4.22 1.972 1.106-1.315 2.519-1.973 4.237-1.973 1.51 0 2.806.54 3.887 1.621 1.08 1.081 1.621 2.377 1.621 3.887V203H70.57v-8.34c0-.807-.286-1.497-.86-2.07a2.822 2.822 0 0 0-2.07-.86c-.807 0-1.503.287-2.09.86a2.822 2.822 0 0 0-.859 2.07V203h-2.578v-8.34c0-.807-.286-1.497-.86-2.07a2.822 2.822 0 0 0-2.07-.86c-.807 0-1.497.287-2.07.86a2.822 2.822 0 0 0-.86 2.07V203zm24.248-3.672c.847.846 1.869 1.27 3.067 1.27 1.198 0 2.226-.424 3.086-1.27.846-.846 1.269-1.868 1.269-3.066 0-1.198-.423-2.227-1.27-3.086-.859-.847-1.887-1.27-3.085-1.27s-2.22.423-3.067 1.27c-.846.86-1.27 1.888-1.27 3.086s.424 2.22 1.27 3.066zm-1.816-7.969c1.354-1.354 2.982-2.03 4.883-2.03 1.914 0 3.548.676 4.902 2.03 1.354 1.355 2.031 2.989 2.031 4.903 0 1.9-.677 3.528-2.031 4.883-1.354 1.354-2.988 2.03-4.902 2.03-1.602 0-3.047-.527-4.336-1.581v7.695h-2.578v-13.027c0-1.914.677-3.548 2.03-4.903zm26.416-2.207h2.578v6.934c0 1.901-.677 3.529-2.031 4.883S102.666 203 100.765 203c-1.914 0-3.548-.677-4.902-2.031s-2.031-2.982-2.031-4.883v-6.934h2.578v6.934c0 1.198.423 2.22 1.27 3.066.859.847 1.887 1.27 3.085 1.27s2.22-.423 3.067-1.27c.846-.846 1.27-1.868 1.27-3.066v-6.934zM111.498 203v-2.578h8.34c.417 0 .775-.15 1.074-.45.3-.299.45-.657.45-1.074a1.5 1.5 0 0 0-1.523-1.523l-4.728-.02c-1.132 0-2.096-.397-2.89-1.19-.808-.808-1.211-1.778-1.211-2.911s.403-2.096 1.21-2.89c.795-.808 1.759-1.212 2.891-1.212h7.207v2.578h-7.207c-.416 0-.774.15-1.074.45-.3.3-.45.657-.45 1.074 0 .43.15.794.45 1.094.3.3.658.449 1.074.449h4.727a4 4 0 0 1 2.91 1.191 4 4 0 0 1 1.191 2.91 4 4 0 0 1-1.191 2.91 4 4 0 0 1-2.91 1.192h-8.34z"/>
        <g transform="translate(12)">
            <mask id="b" fill="#fff">
                <use xlink:href="#a"/>
            </mask>
            <use fill="#FFF" xlink:href="#a"/>
            <g mask="url(#b)">
                <path fill="url(#c)" fill-opacity=".2" d="M108 35L82.647 50 54 65 0 35 54 5l28.647 15L108 35z" transform="translate(6 25)"/>
                <path fill="url(#c)" fill-opacity=".15" d="M108 43L82.647 58 54 73 0 43l54-30 28.647 15L108 43z" transform="translate(6 25)"/>
                <path fill="url(#c)" fill-opacity=".15" d="M108 50L82.647 65 54 80 0 50l54-30 28.647 15L108 50z" transform="translate(6 25)"/>
                <path fill="url(#d)" d="M76 12l-10.33 6L54 24 32 12 54 0l11.67 6L76 12z" transform="translate(6 25)"/>
                <path fill="#44CEE9" d="M38 37.026l21.839 11.297v24.742L38 61.62z"/>
                <path fill="#30B9D3" d="M81.839 37L60 48.297V73.04l21.839-11.445z"/>
            </g>
            <path fill="#FFF" d="M65.07 54H65V17h3v32.255A7 7 0 1 1 65.07 54zM72 59a4 4 0 1 0 0-8 4 4 0 0 0 0 8z" mask="url(#b)"/>
            <path fill="#45CFEA" d="M80 23l-12 6V17z" mask="url(#b)"/>
        </g>
    </g>
</svg>
